HIERARCHY
ROOT Hips
{
	OFFSET 0.000000 0.000000 0.000000
	CHANNELS 6 Xposition Yposition Zposition Zrotation Yrotation Xrotation 
	JOINT LHipJoint
	{
		OFFSET 0.000000 0.000000 0.000000
		CHANNELS 3 Zrotation Yrotation Xrotation
		JOINT LeftUpLeg
		{
			OFFSET 1.363060 -1.794630 0.839290
			CHANNELS 3 Zrotation Yrotation Xrotation
			JOINT LeftLeg
			{
				OFFSET 2.448110 -6.726130 0.000000
				CHANNELS 3 Zrotation Yrotation Xrotation
				JOINT LeftFoot
				{
					OFFSET 2.562200 -7.039590 0.000000
					CHANNELS 3 Zrotation Yrotation Xrotation
					JOINT LeftToeBase
					{
						OFFSET 0.157640 -0.433110 2.322550
						CHANNELS 3 Zrotation Yrotation Xrotation
						End Site
						{
							OFFSET 0.000000 0.000000 0.000000
						}
					}
				}
			}
		}
	}
	JOINT RHipJoint
	{
		OFFSET 0.000000 0.000000 0.000000
		CHANNELS 3 Zrotation Yrotation Xrotation
		JOINT RightUpLeg
		{
			OFFSET -1.305520 -1.794630 0.839290
			CHANNELS 3 Zrotation Yrotation Xrotation
			JOINT RightLeg
			{
				OFFSET -2.542530 -6.985550 0.000000
				CHANNELS 3 Zrotation Yrotation Xrotation
				JOINT RightFoot
				{
					OFFSET -2.568260 -7.056230 0.000000
					CHANNELS 3 Zrotation Yrotation Xrotation
					JOINT RightToeBase
					{
						OFFSET -0.164730 -0.452590 2.363150
						CHANNELS 3 Zrotation Yrotation Xrotation
						End Site
						{
							OFFSET 0.000000 0.000000 0.000000
						}
					}
				}
			}
		}
	}
}
MOTION
Frames: 25
Frame Time: 0.008333
-1.541231 16.834362 -1.190278 4.235024 73.895110 17.965838 -9.840379 0.005038 4.481234 -1.221058 -7.993772 -36.759262 -2.158850 0.063052 10.293757 -0.927109 -9.319168 10.540770 -2.390200 -0.000000 -43.159500 8.855322 -2.522735 1.152059 10.678550 6.292462 1.542359 2.812127 -0.858420 20.539435 0.804552 9.599490 -10.828733 -0.372100 0.000000 -36.931501
-1.392520 16.845774 -1.156251 5.597947 73.152850 19.185317 -9.830155 0.099905 4.310985 -2.175166 -7.236717 -36.582735 -2.221679 0.129438 11.228162 -0.915124 -9.254204 10.491822 -2.362900 0.000000 -41.915700 9.085063 -2.642199 1.139262 9.879713 5.952562 0.860583 2.562831 -1.131687 22.557502 0.823487 9.390014 -9.511693 -0.229300 -0.000001 -43.513701
-1.246954 16.860482 -1.122414 6.804119 72.390107 20.242069 -9.803909 0.197012 4.153628 -3.068213 -6.561512 -36.304497 -2.287935 0.175802 12.038916 -0.899623 -9.085983 10.180497 -2.266000 -0.000000 -40.780400 9.330252 -2.753993 1.106952 9.068780 5.516171 0.031255 2.287222 -1.409648 24.740612 0.836231 9.182799 -7.995967 -0.063100 -0.000001 -49.784100
-1.104856 16.878070 -1.089402 7.832914 71.601032 21.123832 -9.764768 0.295212 4.013227 -3.881149 -5.981168 -35.924529 -2.354569 0.202484 12.711101 -0.878852 -8.810144 9.649920 -2.109100 -0.000000 -39.809001 9.585131 -2.851007 1.058999 8.262187 5.005265 -0.944080 1.988727 -1.683238 27.075575 0.833343 8.947746 -6.345590 0.121900 -0.000000 -55.328100
-0.966356 16.898100 -1.057837 8.659071 70.779487 21.813899 -9.717420 0.392994 3.891004 -4.602240 -5.487771 -35.453576 -2.418934 0.210907 13.239492 -0.851697 -8.438449 8.955339 -1.909401 -0.000000 -39.030301 9.841732 -2.926862 1.001950 7.484413 4.454141 -2.056085 1.674104 -1.943568 29.546685 0.805826 8.641854 -4.655696 0.312699 0.000000 -59.407900
-0.831523 16.920068 -1.028148 9.282259 69.920092 22.316461 -9.665821 0.489272 3.785733 -5.232889 -5.067020 -34.901140 -2.479242 0.202872 13.620424 -0.817192 -7.984633 8.161009 -1.685900 -0.000000 -38.447700 10.094162 -2.977909 0.940245 6.751302 3.884393 -3.286940 1.347497 -2.184076 32.108110 0.746393 8.200787 -2.953716 0.496800 0.000000 -62.400600
-0.700347 16.943529 -1.000625 9.692347 69.019545 22.624414 -9.615466 0.582689 3.693271 -5.775452 -4.685846 -34.286653 -2.533901 0.181461 13.862953 -0.775742 -7.475315 7.328928 -1.458000 0.000000 -38.046900 10.334240 -3.001495 0.879390 6.088968 3.326380 -4.613388 1.016583 -2.399664 34.719930 0.648752 7.554781 -1.309847 0.648100 0.000000 -64.328500
-0.572684 16.968086 -0.975489 9.891583 68.077554 22.739236 -9.571880 0.672515 3.607950 -6.237112 -4.305325 -33.627536 -2.581891 0.150151 13.980965 -0.728671 -6.938769 6.516398 -1.241899 -0.000000 -37.801300 10.555088 -2.997550 0.823751 5.519761 2.803122 -6.007360 0.688797 -2.587911 37.338532 0.508519 6.635571 0.216663 0.734500 0.000000 -65.448500
-0.448548 16.993301 -0.952179 9.941392 67.095801 22.716566 -9.534309 0.758882 3.524117 -6.643425 -3.909854 -32.926277 -2.624140 0.110694 13.975381 -0.676649 -6.380357 5.776781 -1.043900 0.000000 -37.673400 10.758343 -2.965537 0.771032 5.032725 2.313255 -7.445478 0.371560 -2.750094 39.934646 0.324585 5.406343 1.549489 0.724000 -0.000001 -65.807200
-0.327601 17.018949 -0.931000 9.818206 66.077900 22.532029 -9.510759 0.841086 3.434246 -6.991435 -3.442948 -32.212794 -2.659850 0.068141 13.882178 -0.623483 -5.842774 5.135796 -0.873500 0.000000 -37.635400 10.934687 -2.909431 0.726772 4.661988 1.881383 -8.899555 0.071227 -2.886847 42.468389 0.094627 3.823545 2.645422 0.590500 -0.000000 -65.627299
-0.209658 17.044787 -0.911467 9.571567 65.029555 22.228609 -9.500709 0.919544 3.333128 -7.299756 -2.888848 -31.491681 -2.690484 0.024437 13.713812 -0.570958 -5.333702 4.613385 -0.729900 0.000000 -37.657100 11.085976 -2.831928 0.688753 4.396910 1.500999 -10.347931 -0.206778 -3.001713 44.914249 -0.180188 1.897613 3.455254 0.325001 0.000000 -64.904799
-0.094551 17.070621 -0.893200 9.239261 63.958059 21.837676 -9.503672 0.994739 3.217138 -7.580725 -2.236466 -30.768022 -2.717421 -0.018667 13.486349 -0.520695 -4.860145 4.211745 -0.610400 0.000000 -37.714500 11.213593 -2.736786 0.655284 4.228285 1.164775 -11.770702 -0.457827 -3.098480 47.247334 -0.496507 -0.327912 3.945153 -0.059901 -0.000000 -63.585700
0.017894 17.096362 -0.875786 8.853430 62.870558 21.386551 -9.518276 1.067129 3.084435 -7.842977 -1.484186 -30.045683 -2.742007 -0.059978 13.215572 -0.473646 -4.424461 3.918758 -0.511000 0.000001 -37.791300 11.319342 -2.628246 0.624548 4.144244 0.863867 -13.151444 -0.678447 -3.180927 49.443088 -0.847397 -2.773459 4.101291 -0.529099 0.000000 -61.638800
0.127949 17.121903 -0.859000 8.433634 61.774172 20.893677 -9.543330 1.136970 2.935331 -8.088776 -0.637143 -29.331353 -2.765199 -0.098570 12.919099 -0.430291 -4.028153 3.710132 -0.427600 0.000000 -37.878300 11.404185 -2.511095 0.595670 4.135411 0.591295 -14.479237 -0.866524 -3.252130 51.476443 -1.221563 -5.330438 3.934095 -1.030000 0.000001 -59.105700
0.235636 17.147116 -0.842394 8.017054 60.673610 20.391693 -9.573577 1.205066 2.771579 -8.327283 0.276624 -28.614804 -2.788130 -0.135151 12.598815 -0.389212 -3.653991 3.561105 -0.354000 -0.000000 -37.968800 11.473348 -2.388743 0.563965 4.174472 0.330796 -15.744706 -1.020822 -3.316136 53.329855 -1.601278 -7.857650 3.459537 -1.498500 0.000000 -55.935199
0.341300 17.171978 -0.825892 7.601563 59.574652 19.883107 -9.608957 1.271412 2.597457 -8.550384 1.242738 -27.906130 -2.810618 -0.169302 12.272183 -0.350144 -3.302063 3.438653 -0.287700 0.000000 -38.064400 11.526110 -2.266901 0.531629 4.259292 0.082272 -16.947183 -1.142089 -3.374199 54.981417 -1.967382 -10.223118 2.735839 -1.879400 -0.000000 -52.359100
0.445016 17.196379 -0.809342 7.199060 58.481360 19.381076 -9.646832 1.336437 2.418101 -8.757259 2.232654 -27.203425 -2.832532 -0.201728 11.943860 -0.311713 -2.959882 3.318219 -0.225300 -0.000000 -38.167700 11.564877 -2.149796 0.498799 4.375490 -0.160078 -18.087922 -1.231724 -3.427879 56.418396 -2.298626 -12.297203 1.826093 -2.132000 0.000000 -48.552400
0.546756 17.220186 -0.792511 6.821884 57.392283 18.898623 -9.683351 1.400269 2.235498 -8.949749 3.218124 -26.495987 -2.853753 -0.233187 11.611082 -0.272348 -2.613232 3.182411 -0.163600 0.000000 -38.283300 11.593177 -2.038422 0.462093 4.505717 -0.402610 -19.166733 -1.292005 -3.478140 57.632783 -2.575296 -13.972393 0.802907 -2.238900 0.000000 -44.742600
0.646804 17.243284 -0.775396 6.460168 56.310316 18.434385 -9.719611 1.462836 2.055898 -9.120076 4.184671 -25.797307 -2.873473 -0.263666 11.285165 -0.231970 -2.263414 3.017795 -0.103000 0.000000 -38.417200 11.609818 -1.936512 0.427132 4.654032 -0.639169 -20.196384 -1.325144 -3.523809 58.620782 -2.783265 -15.183190 -0.253942 -2.211100 0.000001 -41.192899
0.745122 17.265485 -0.757864 6.117091 55.232973 17.993318 -9.754023 1.524152 1.880626 -9.269723 5.117948 -25.103367 -2.891456 -0.293441 10.964138 -0.190135 -1.906067 2.823967 -0.043100 0.000000 -38.573100 11.616865 -1.844110 0.393644 4.812510 -0.870119 -21.181145 -1.333143 -3.564556 59.383759 -2.912944 -15.892873 -1.278549 -2.075800 0.000000 -38.103900
0.841789 17.286636 -0.739777 5.789820 54.158525 17.576160 -9.786756 1.584293 1.711076 -9.398900 6.014197 -24.418384 -2.907594 -0.322297 10.650802 -0.147331 -1.545387 2.606473 0.014700 0.000000 -38.752900 11.614902 -1.761629 0.364013 4.981091 -1.092062 -22.128364 -1.317569 -3.599525 59.925789 -2.961131 -16.101430 -2.218994 -1.869700 -0.000000 -35.627500
0.936738 17.306560 -0.721043 5.479032 53.084785 17.182704 -9.817742 1.643531 1.546370 -9.510724 6.876429 -23.741804 -2.922131 -0.349876 10.344633 -0.104339 -1.186931 2.378085 0.069300 0.000000 -38.955500 11.605299 -1.688534 0.339365 5.157101 -1.303082 -23.039909 -1.279763 -3.628283 60.252662 -2.930488 -15.839660 -3.041541 -1.629100 0.000000 -33.857000
1.029953 17.325138 -0.701518 5.183825 52.010001 16.811438 -9.847588 1.702146 1.385104 -9.607808 7.714336 -23.077132 -2.935587 -0.375517 10.048031 -0.062508 -0.840893 2.153278 0.118900 -0.000001 -39.178000 11.588782 -1.624053 0.321516 5.340844 -1.500118 -23.917926 -1.221013 -3.650242 60.371004 -2.829453 -15.166912 -3.730185 -1.383700 -0.000000 -32.831200
1.121527 17.342241 -0.681104 4.900470 50.931764 16.460846 -9.876987 1.759994 1.224569 -9.691907 8.542341 -22.432204 -2.948787 -0.398292 9.765671 -0.023377 -0.519379 1.944658 0.162300 0.000000 -39.416400 11.565629 -1.566262 0.311422 5.535296 -1.679205 -24.764995 -1.142852 -3.664614 60.288658 -2.671663 -14.166886 -4.285979 -1.153700 0.000000 -32.533800
1.211507 17.357833 -0.659704 4.628638 49.850322 16.129023 -9.906535 1.817269 1.062293 -9.765086 9.374512 -21.810792 -2.962562 -0.417449 9.501720 0.011658 -0.232537 1.763199 0.198400 -0.000000 -39.666400 11.536247 -1.513429 0.309467 5.741784 -1.839717 -25.579719 -1.046875 -3.670870 60.013954 -2.474399 -12.939467 -4.726232 -0.949199 0.000000 -32.882800
